<?xml version="1.0" standalone="no"?>
<!DOCTYPE svg PUBLIC "-//W3C//DTD SVG 20010904//EN"
 "http://www.w3.org/TR/2001/REC-SVG-20010904/DTD/svg10.dtd">
<svg version="1.0" xmlns="http://www.w3.org/2000/svg"
 width="1072.000000pt" height="691.000000pt" viewBox="0 0 1072.000000 691.000000"
 preserveAspectRatio="xMidYMid meet">

<g transform="translate(0.000000,691.000000) scale(0.100000,-0.100000)"
fill="#000000" stroke="none">
<path d="M6383 5473 c15 -2 39 -2 55 0 15 2 2 4 -28 4 -30 0 -43 -2 -27 -4z"/>
<path d="M6118 5463 c12 -2 30 -2 40 0 9 3 -1 5 -23 4 -22 0 -30 -2 -17 -4z"/>
<path d="M6540 5463 c199 -15 461 -88 665 -188 401 -195 716 -512 905 -910 65
-137 135 -337 126 -361 -11 -29 -40 -10 -55 36 -8 25 -18 54 -22 65 -5 11 -16
43 -25 70 -48 150 -209 421 -334 566 -277 319 -628 533 -1034 629 -48 12 -90
19 -93 16 -5 -5 11 -10 87 -26 134 -28 380 -128 525 -213 325 -189 597 -482
764 -819 56 -113 133 -317 125 -330 -3 -4 -14 -8 -24 -8 -13 0 -26 15 -40 46
-11 26 -20 52 -20 59 0 8 -6 26 -14 42 -18 35 -66 142 -66 147 0 13 -103 185
-153 256 -219 308 -545 566 -867 685 -41 15 -84 31 -95 36 -55 23 -251 69
-290 68 -18 -1 -3 -6 35 -14 572 -114 1094 -514 1350 -1035 45 -91 110 -254
110 -276 0 -11 -8 -14 -26 -12 -22 3 -29 12 -46 63 -79 239 -273 528 -491 731
-73 69 -219 184 -232 184 -3 0 -21 11 -38 24 -54 40 -144 89 -280 151 -118 54
-376 128 -361 104 3 -5 15 -9 26 -9 27 0 220 -59 233 -71 5 -5 15 -9 23 -9 20
0 245 -112 321 -161 231 -145 469 -382 616 -614 99 -156 194 -368 175 -391 -9
-10 -17 -10 -34 -2 -17 7 -29 7 -43 -1 -14 -7 -23 -7 -31 1 -9 9 -18 8 -38 -1
-20 -9 -30 -9 -40 0 -11 9 -21 9 -40 0 -17 -8 -31 -8 -44 -1 -13 7 -27 7 -43
-1 -18 -8 -30 -8 -46 0 -15 9 -26 9 -42 1 -16 -9 -26 -8 -45 5 -13 8 -24 20
-24 26 0 11 -73 118 -131 191 -167 212 -373 384 -609 510 -47 25 -114 58 -150
72 -36 15 -74 31 -85 36 -42 19 -230 70 -254 69 -17 0 -9 -5 24 -14 163 -43
369 -122 455 -175 8 -5 47 -28 85 -51 230 -137 433 -329 598 -565 61 -87 65
-99 42 -108 -26 -10 -43 4 -86 67 -185 274 -474 520 -764 652 -44 20 -89 40
-100 45 -40 18 -204 70 -222 70 -11 0 -23 4 -28 9 -14 12 -184 41 -231 40 -27
-1 -17 -4 31 -10 181 -23 396 -93 587 -191 270 -139 483 -320 682 -580 64 -84
66 -88 45 -99 -16 -8 -27 -8 -45 2 -13 7 -24 17 -24 22 0 19 -141 185 -231
272 -200 192 -434 340 -674 425 -49 17 -97 35 -105 40 -9 4 -36 10 -60 13 -36
5 -29 1 37 -21 45 -15 85 -30 89 -34 4 -5 13 -8 21 -8 18 0 102 -36 211 -92
93 -47 239 -141 338 -217 73 -56 226 -213 300 -306 53 -67 61 -82 50 -93 -22
-22 -51 -6 -97 56 -75 99 -262 279 -379 362 -111 80 -304 184 -425 230 -33 13
-69 26 -80 31 -29 12 -172 50 -230 60 -27 5 -69 14 -93 19 -23 6 -61 10 -85 9
-27 0 4 -9 88 -24 239 -41 496 -135 658 -238 32 -21 60 -37 62 -37 7 0 152
-107 195 -143 109 -93 300 -293 300 -315 0 -18 -29 -22 -151 -22 l-120 0 3
-147 3 -148 231 -3 c169 -2 234 -6 241 -15 36 -47 130 -324 120 -351 -6 -14
-37 -16 -230 -16 -147 0 -227 4 -234 11 -8 8 -13 8 -17 0 -10 -16 -37 -13 -58
5 -16 16 -18 16 -24 0 -10 -27 -48 -18 -85 20 -70 74 -102 87 -224 93 l-110 6
50 20 c34 14 72 20 120 19 84 0 137 -24 208 -92 60 -59 62 -41 2 20 -51 52
-99 78 -143 78 -17 0 -34 5 -37 11 -4 6 -33 8 -78 4 l-72 -6 35 16 c154 71
317 16 394 -133 10 -19 20 -32 22 -29 8 8 -25 67 -62 113 -72 89 -211 119
-347 73 -123 -41 -146 -62 -438 -385 -134 -148 -284 -315 -334 -370 -49 -54
-101 -114 -115 -133 l-25 -33 -57 16 c-111 33 -240 141 -293 246 -61 120 -81
285 -50 405 49 189 165 320 339 381 71 26 95 29 196 29 163 0 242 -29 372
-138 l59 -48 37 32 c90 78 192 180 192 193 0 32 -138 140 -255 198 -124 63
-225 82 -420 83 -146 0 -183 -3 -260 -23 -336 -87 -576 -332 -641 -654 -25
-125 -16 -346 20 -455 55 -169 159 -318 289 -415 97 -71 222 -133 315 -153 94
-21 112 -31 112 -57 0 -54 51 -176 116 -280 36 -58 146 -164 217 -212 66 -43
150 -78 244 -102 47 -12 96 -14 195 -11 193 6 335 41 493 120 169 84 256 155
443 362 75 83 143 156 153 162 12 9 106 13 355 15 l339 3 0 145 0 145 -190 3
c-104 1 -193 6 -198 11 -5 5 16 36 45 70 211 246 297 411 344 661 25 132 15
426 -20 590 -33 151 -90 325 -146 438 -22 45 -40 85 -40 87 0 3 -23 42 -51 87
-153 248 -358 462 -589 615 -75 50 -249 144 -325 175 -22 9 -58 24 -80 33
-109 44 -397 105 -490 103 -50 -1 -52 -2 -15 -5z m1747 -1910 c-4 -190 -11
-248 -30 -260 -6 -4 -7 7 -1 33 5 21 9 109 9 194 1 195 3 220 15 220 7 0 10
-62 7 -187z m-740 115 c22 -30 95 -244 108 -320 7 -34 5 -38 -14 -38 -12 0
-23 6 -25 13 -34 118 -64 205 -88 259 -17 37 -28 74 -25 83 8 18 31 20 44 3z
m80 0 c17 -24 103 -317 103 -354 0 -2 -9 -4 -20 -4 -15 0 -23 12 -36 58 -23
82 -63 202 -80 239 -20 44 -18 73 5 73 10 0 23 -6 28 -12z m72 -2 c21 -25 91
-287 91 -341 0 -8 -9 -15 -20 -15 -11 0 -20 7 -20 15 0 16 -37 156 -50 190 -5
11 -11 29 -14 40 -2 11 -11 38 -19 60 -8 21 -13 45 -10 52 7 17 28 17 42 -1z
m79 -3 c20 -38 71 -276 72 -331 0 -17 -5 -23 -17 -20 -13 2 -22 25 -36 88 -31
147 -47 204 -67 241 -5 10 -4 21 3 28 16 16 35 14 45 -6z m59 9 c20 -13 73
-254 73 -331 0 -26 -4 -32 -17 -29 -11 2 -19 14 -21 28 -6 67 -47 249 -64 286
-17 37 0 64 29 46z m95 -76 c20 -85 44 -273 35 -282 -17 -17 -37 7 -37 45 0
42 -34 225 -50 267 -12 30 -5 46 18 42 12 -2 22 -25 34 -72z m60 34 c14 -64
41 -310 35 -316 -3 -4 -12 -4 -20 -1 -9 3 -16 31 -20 84 -4 43 -15 119 -26
168 -10 50 -16 94 -14 98 11 19 38 -1 45 -33z m67 -26 c7 -36 15 -117 18 -180
5 -102 4 -114 -10 -114 -13 0 -17 9 -17 38 0 35 -21 203 -36 285 -6 33 -4 37
14 37 17 0 22 -10 31 -66z m56 44 c13 -42 19 -338 6 -338 -6 0 -11 10 -11 23
0 43 -30 298 -35 308 -4 5 -3 14 0 19 11 18 32 11 40 -12z m62 -5 c4 -16 8
-95 8 -178 0 -179 -17 -213 -27 -55 -3 58 -9 140 -13 183 -5 66 -4 77 9 77 9
0 19 -12 23 -27z m59 1 c10 -40 -2 -349 -15 -370 -8 -14 -10 20 -11 136 0 85
-3 179 -6 208 -6 44 -4 52 9 52 10 0 19 -11 23 -26z m-1405 -248 c49 -21 117
-82 139 -127 13 -24 20 -58 20 -95 0 -47 -3 -57 -20 -61 -12 -3 -20 -14 -20
-27 0 -30 -20 -49 -37 -35 -10 9 -13 5 -13 -19 0 -34 -36 -66 -44 -40 -24 86
-34 110 -63 150 -61 85 -154 124 -273 115 -68 -6 -73 -5 -55 8 50 39 177 47
247 16 77 -34 122 -74 156 -142 35 -69 34 -43 -1 29 -24 50 -68 91 -130 124
-36 20 -57 23 -140 23 l-98 -1 37 19 c21 11 68 21 109 24 63 5 79 2 132 -22
67 -30 110 -69 141 -130 12 -22 21 -35 22 -28 1 49 -79 141 -150 172 -37 16
-71 21 -140 22 -49 0 -90 3 -90 5 0 3 15 11 33 19 43 19 194 19 238 1z m-145
-184 c87 -45 154 -144 154 -230 0 -56 -5 -65 -31 -51 -17 8 -19 6 -19 -21 0
-33 -26 -52 -40 -30 -6 9 -10 0 -12 -26 -2 -31 -7 -40 -25 -42 -17 -3 -22 3
-26 25 -2 15 -5 2 -6 -31 -1 -57 -2 -58 -26 -54 -22 5 -25 2 -25 -24 0 -32
-27 -50 -41 -27 -6 10 -9 7 -9 -13 0 -39 -10 -58 -31 -58 -12 0 -21 9 -25 28
-13 62 -39 119 -69 153 -38 42 -51 77 -37 91 20 20 89 -37 127 -103 31 -55 33
-42 3 15 -28 51 -51 75 -105 109 -32 20 -43 34 -43 52 0 31 17 32 65 5 71 -40
85 -53 121 -109 20 -31 32 -45 28 -31 -9 32 -46 91 -70 111 -21 17 -57 37
-117 63 -77 33 -14 60 72 31 62 -20 124 -73 151 -130 12 -25 23 -45 25 -45 7
0 -14 62 -27 78 -60 81 -120 120 -199 129 -53 6 -67 16 -50 36 5 7 8 22 5 33
-5 18 2 22 49 33 119 26 264 -50 312 -164 18 -44 28 -46 13 -2 -40 118 -161
193 -299 185 -42 -2 -59 1 -59 9 0 7 12 15 28 19 15 3 32 8 37 10 29 11 163
-4 201 -24z m-326 -172 c0 -5 -4 -10 -10 -10 -5 0 -10 5 -10 10 0 6 5 10 10
10 6 0 10 -4 10 -10z m1265 -40 c20 -7 23 -18 29 -87 7 -92 -8 -281 -24 -297
-7 -7 -109 -12 -325 -14 l-315 -3 0 -108 c0 -89 -3 -110 -15 -115 -33 -12
-200 58 -288 121 -64 45 -71 37 -9 -10 55 -41 147 -88 212 -106 25 -8 56 -17
70 -21 30 -8 37 -32 16 -52 -13 -14 -8 -16 41 -21 31 -3 101 -3 155 0 114 7
131 -7 33 -26 -82 -17 -282 -17 -360 -2 -91 19 -193 67 -282 132 -55 41 -86
55 -37 17 16 -13 38 -31 49 -42 27 -25 169 -93 236 -113 98 -29 308 -32 453
-7 45 8 43 -10 -1 -19 -16 -3 -59 -12 -98 -21 -79 -18 -358 -24 -378 -8 -7 5
-27 13 -46 17 -51 11 -140 53 -203 96 -75 51 -89 51 -18 0 70 -51 117 -75 210
-107 64 -23 97 -27 229 -31 104 -4 170 -2 205 7 29 7 61 10 72 8 15 -4 13 -6
-11 -12 -16 -4 -39 -11 -50 -16 -42 -18 -115 -24 -270 -25 -143 0 -168 3 -230
24 -88 30 -163 70 -240 129 -33 25 -53 38 -46 28 8 -10 42 -37 75 -61 161
-114 291 -150 508 -141 73 2 153 8 177 12 48 7 51 -10 4 -19 -16 -4 -50 -11
-78 -17 -27 -7 -113 -14 -189 -17 -110 -4 -154 -1 -210 12 -123 29 -235 89
-336 179 -38 34 -40 35 -15 7 39 -43 131 -113 175 -133 117 -54 155 -67 231
-78 81 -12 256 -9 358 6 48 7 51 -10 4 -19 -156 -31 -202 -37 -290 -37 -98 0
-185 11 -228 30 -11 5 -42 16 -69 26 -53 19 -153 80 -201 123 -26 22 -27 23
-10 2 30 -36 136 -108 198 -136 31 -13 93 -34 139 -46 72 -18 101 -20 218 -15
74 3 158 8 185 11 86 9 -3 -21 -131 -44 -73 -13 -256 -14 -298 -2 -17 5 -58
17 -91 26 -89 25 -199 90 -276 162 -112 106 -135 161 -62 150 24 -4 36 -2 40
9 3 8 18 14 34 14 16 0 38 9 49 20 11 11 27 20 36 20 9 0 27 9 41 20 14 11 31
20 37 20 6 0 17 9 24 20 7 11 17 20 24 20 11 0 46 30 95 83 15 15 32 27 39 27
10 0 9 7 -2 29 -14 27 -13 30 23 67 39 40 176 190 278 304 l58 65 325 -3 c178
-2 334 -7 347 -12z m-1249 -11 c8 -14 -14 -29 -33 -22 -7 3 -13 11 -13 19 0
17 36 19 46 3z m1328 -105 c-1 -116 -12 -224 -24 -224 -5 0 -6 322 -1 338 1 2
7 2 14 -1 9 -3 12 -34 11 -113z m52 -13 c-10 -161 -26 -167 -26 -10 0 124 3
144 23 132 6 -4 7 -48 3 -122z m51 52 c-3 -43 -10 -98 -16 -123 -9 -40 -10
-36 -6 40 3 47 5 102 5 123 0 20 5 37 11 37 7 0 9 -26 6 -77z m-1497 57 c0 -5
-7 -10 -15 -10 -8 0 -15 5 -15 10 0 6 7 10 15 10 8 0 15 -4 15 -10z m1556 -17
c-4 -16 -9 -49 -13 -76 -9 -75 -23 -66 -23 16 0 76 3 87 28 87 11 0 13 -7 8
-27z m44 -7 c0 -19 -4 -38 -10 -41 -6 -4 -10 10 -10 34 0 23 5 41 10 41 6 0
10 -15 10 -34z m40 -2 c0 -14 -4 -23 -10 -19 -5 3 -10 15 -10 26 0 10 5 19 10
19 6 0 10 -12 10 -26z m-1631 -40 c-15 -18 -28 -18 -36 2 -8 20 17 36 34 22
10 -8 10 -14 2 -24z m-68 3 c-13 -13 -26 -3 -16 12 3 6 11 8 17 5 6 -4 6 -10
-1 -17z m133 7 c11 -29 6 -44 -14 -44 -23 0 -35 22 -26 45 7 20 32 19 40 -1z
m-116 -62 c3 -16 -2 -22 -16 -22 -27 0 -33 10 -21 32 13 24 33 19 37 -10z
m-68 3 c0 -8 -4 -15 -10 -15 -5 0 -10 7 -10 15 0 8 5 15 10 15 6 0 10 -7 10
-15z m130 0 c13 -16 4 -58 -13 -52 -18 6 -31 33 -24 51 8 20 21 21 37 1z m87
-42 c39 -58 73 -132 64 -137 -12 -8 -109 90 -122 122 -19 48 28 59 58 15z
m-213 1 c9 -3 16 -18 16 -33 0 -14 5 -33 11 -41 8 -12 10 -8 8 15 -3 63 12 73
48 32 25 -29 15 -63 -22 -77 -14 -5 -28 -17 -31 -25 -12 -29 -42 -17 -53 23
l-10 37 5 -46 c3 -33 1 -49 -10 -58 -19 -16 -36 -6 -36 19 0 10 -4 21 -9 25
-6 3 -8 -8 -4 -28 4 -26 1 -36 -12 -41 -9 -3 -21 -3 -27 0 -6 4 -13 2 -17 -4
-4 -7 -38 -14 -76 -18 -57 -5 -74 -3 -90 11 -11 9 -14 13 -7 10 9 -5 17 4 25
24 11 31 27 42 27 19 0 -7 11 8 23 35 13 26 26 45 29 41 4 -3 11 4 18 15 6 12
16 21 22 21 6 0 19 7 28 15 10 9 38 17 63 18 26 2 50 6 53 10 9 8 9 8 28 1z
m-84 -552 c0 -5 21 -33 46 -63 115 -135 253 -220 419 -260 77 -18 108 -20 215
-15 69 3 147 9 174 12 55 7 58 -10 4 -19 -18 -3 -71 -13 -118 -21 -109 -20
-239 -20 -332 -1 -95 20 -237 91 -318 158 -68 56 -167 188 -155 206 7 13 65
15 65 3z m-310 -34 c53 -144 111 -244 165 -288 10 -8 2 7 -18 33 -55 73 -87
130 -112 205 -24 71 -24 82 3 82 11 0 33 -32 66 -95 28 -56 69 -118 97 -148
l50 -52 -51 69 c-58 78 -110 176 -110 206 0 16 5 21 22 18 14 -2 38 -30 75
-90 92 -149 237 -266 401 -324 97 -34 270 -50 374 -36 99 14 154 15 123 2 -36
-15 -99 -28 -180 -39 -235 -32 -415 15 -603 157 -39 29 -43 30 -22 8 37 -41
147 -110 220 -139 36 -14 117 -33 180 -42 101 -15 130 -16 233 -5 64 7 120 10
124 7 7 -8 -4 -11 -77 -25 -30 -6 -79 -15 -108 -21 -30 -6 -95 -11 -145 -12
-86 -1 -89 -2 -47 -11 49 -11 327 8 336 24 3 4 15 8 27 8 18 -1 16 -3 -11 -15
-74 -32 -260 -65 -371 -65 -163 0 -382 97 -502 222 -91 95 -189 288 -189 372
0 39 34 35 50 -6z m241 -5 c72 -116 204 -233 329 -292 148 -69 280 -82 535
-55 129 14 3 -25 -150 -46 -134 -19 -271 -8 -367 29 -180 70 -261 130 -354
261 -79 112 -87 140 -39 140 16 0 30 -11 46 -37z m846 -449 c-3 -3 -12 -4 -19
-1 -8 3 -5 6 6 6 11 1 17 -2 13 -5z"/>
<path d="M6490 3120 c92 -12 171 -67 216 -150 14 -25 22 -34 18 -20 -16 62
-86 139 -150 166 -19 8 -57 13 -86 13 l-53 -2 55 -7z"/>
<path d="M6570 2474 c0 -18 210 -144 241 -144 8 0 19 -4 25 -9 10 -10 104 -25
104 -17 0 3 -19 10 -42 16 -113 27 -158 47 -255 111 -40 26 -73 45 -73 43z"/>
<path d="M6240 2245 c13 -14 26 -25 28 -25 3 0 -5 11 -18 25 -13 14 -26 25
-28 25 -3 0 5 -11 18 -25z"/>
<path d="M6065 1865 c28 -25 88 -64 135 -87 47 -22 92 -44 102 -49 9 -4 40
-11 70 -14 37 -4 47 -2 33 4 -11 5 -32 10 -48 10 -15 1 -35 5 -45 10 -9 4 -55
26 -102 47 -46 22 -109 58 -140 82 l-55 43 50 -46z"/>
<path d="M5938 5443 c6 -2 18 -2 25 0 6 3 1 5 -13 5 -14 0 -19 -2 -12 -5z"/>
<path d="M5813 5423 c9 -2 23 -2 30 0 6 3 -1 5 -18 5 -16 0 -22 -2 -12 -5z"/>
<path d="M5718 5403 c6 -2 18 -2 25 0 6 3 1 5 -13 5 -14 0 -19 -2 -12 -5z"/>
<path d="M6083 5403 c9 -2 23 -2 30 0 6 3 -1 5 -18 5 -16 0 -22 -2 -12 -5z"/>
<path d="M6441 5406 c2 -2 49 -6 104 -9 67 -3 85 -2 55 3 -45 9 -167 13 -159
6z"/>
<path d="M5635 5390 l-30 -8 33 -1 c17 0 32 4 32 9 0 6 -1 9 -2 9 -2 -1 -16
-5 -33 -9z"/>
<path d="M5565 5373 c-11 -2 -81 -24 -156 -48 -336 -107 -636 -266 -944 -499
-160 -121 -339 -294 -565 -546 -57 -63 -145 -160 -195 -215 -51 -55 -104 -114
-119 -132 -14 -17 -52 -48 -84 -69 -69 -46 -196 -171 -241 -238 -18 -27 -48
-83 -67 -124 -19 -42 -49 -96 -66 -121 -94 -139 -215 -363 -284 -526 -29 -67
-91 -242 -100 -280 -4 -16 -14 -43 -22 -60 -14 -28 -16 -28 -23 -10 -4 11 -8
347 -8 748 l-1 727 -162 -2 -162 -3 -101 -170 c-131 -219 -410 -689 -465 -782
-23 -40 -48 -73 -55 -73 -8 0 -77 105 -154 233 -77 127 -216 358 -309 512
l-169 280 -153 5 c-83 3 -157 2 -163 -2 -7 -4 -11 -263 -11 -840 l-1 -833 183
-3 182 -2 0 485 c0 267 3 485 8 485 11 -1 24 -22 186 -290 82 -135 170 -279
196 -320 26 -41 55 -91 65 -110 35 -69 51 -80 126 -80 104 0 68 -41 299 350
229 387 276 464 287 467 10 4 13 -103 15 -489 l3 -493 160 -5 c187 -6 177 2
151 -128 -28 -145 -54 -512 -36 -512 12 0 10 -20 21 155 5 83 14 182 20 220 5
39 12 90 15 115 3 25 10 50 16 55 7 7 8 -5 4 -35 -6 -42 -14 -142 -32 -357 -5
-65 -4 -93 4 -93 13 0 19 43 32 220 12 170 23 257 34 267 4 4 5 -26 2 -67 -13
-182 -18 -360 -9 -360 6 0 13 55 17 123 4 67 11 156 16 197 6 41 13 101 16
133 4 31 11 60 16 63 6 4 8 -15 4 -52 -12 -131 -26 -390 -21 -403 12 -31 19 6
27 146 13 225 19 277 30 288 10 10 8 -70 -8 -297 -5 -63 -4 -88 5 -88 14 0 10
-25 27 185 23 273 25 289 36 300 6 7 8 -15 4 -65 -14 -185 -18 -362 -9 -357 6
4 13 59 17 124 7 108 11 150 32 326 3 31 11 60 16 63 6 4 8 -13 4 -47 -11
-104 -27 -402 -21 -407 13 -13 17 15 26 155 9 140 18 218 37 343 6 40 11 50
16 37 5 -9 5 -27 1 -40 -3 -12 -10 -71 -15 -132 -23 -292 -23 -305 -12 -305 7
0 12 1 13 3 0 1 7 83 16 182 8 99 17 205 20 235 3 30 9 60 15 65 7 7 8 -16 4
-70 -14 -181 -18 -355 -9 -355 6 0 13 55 17 123 4 67 12 158 17 202 5 44 12
104 15 133 3 28 10 52 16 52 6 0 8 -19 4 -47 -9 -82 -26 -396 -21 -401 13 -13
18 18 26 150 5 79 13 177 19 218 6 41 14 100 18 130 5 35 9 48 13 35 3 -11 2
-51 -3 -90 -17 -149 -31 -363 -24 -380 14 -37 21 1 34 173 19 261 23 292 34
292 7 0 8 -22 4 -62 -14 -140 -19 -361 -7 -354 6 4 11 34 11 68 0 94 23 288
33 288 7 0 8 -53 4 -145 -5 -95 -4 -145 3 -145 6 0 10 39 10 98 0 99 6 142 20
142 5 0 34 -27 67 -61 114 -119 270 -208 439 -251 129 -32 382 -32 502 0 108
29 163 51 240 97 67 39 192 149 192 169 0 15 -219 216 -235 216 -6 0 -24 -14
-41 -31 -46 -48 -128 -98 -207 -126 -97 -34 -259 -36 -355 -4 -175 57 -291
171 -348 341 -29 85 -27 283 4 371 55 161 170 276 329 331 57 19 88 23 188 23
108 0 127 -3 192 -28 73 -29 128 -61 180 -107 67 -58 52 -63 178 55 69 64 115
114 113 124 -6 29 -152 140 -243 185 -135 67 -223 87 -400 93 -116 4 -169 2
-229 -11 -90 -18 -116 -20 -116 -6 0 24 61 94 125 143 256 195 560 356 875
463 83 28 107 40 88 42 -15 2 -36 -2 -48 -8 -11 -6 -20 -7 -20 -3 0 11 49 33
72 33 10 0 18 5 18 10 0 6 11 10 24 10 14 0 28 5 31 10 4 6 -7 10 -24 10 -17
0 -31 -4 -31 -10 0 -5 -9 -10 -20 -10 -11 0 -20 5 -20 10 0 6 7 10 15 10 8 0
25 5 38 12 48 24 57 28 76 28 11 0 23 5 26 10 4 6 -7 10 -24 10 -17 0 -31 5
-31 10 0 6 11 10 25 10 14 0 25 5 25 10 0 6 14 10 30 10 17 0 30 5 30 10 0 6
-13 10 -29 10 -17 0 -33 -4 -36 -10 -3 -5 -15 -10 -26 -10 -11 0 -17 5 -14 10
3 6 15 10 26 10 10 0 19 5 19 10 0 6 11 10 24 10 14 0 28 5 31 10 3 6 17 10
30 10 13 0 27 5 30 10 4 6 -6 10 -24 10 -16 0 -33 -4 -36 -10 -3 -5 -15 -10
-26 -10 -11 0 -17 5 -14 10 3 6 15 10 26 10 10 0 19 5 19 10 0 6 11 10 25 10
14 0 25 5 25 10 0 6 13 10 29 10 17 0 33 5 36 10 3 6 19 10 35 10 16 0 32 5
36 11 5 8 -3 10 -27 5 -19 -4 -51 -10 -71 -13 -21 -3 -38 -9 -38 -14 0 -5 -9
-9 -20 -9 -11 0 -20 5 -20 10 0 6 9 10 19 10 11 0 23 5 26 10 3 6 17 10 31 10
13 0 24 5 24 10 0 6 14 10 30 10 17 0 30 5 30 10 0 6 -13 10 -30 10 -16 0 -30
-4 -30 -10 0 -5 -12 -10 -26 -10 -14 0 -23 4 -19 10 3 6 15 10 26 10 10 0 19
5 19 10 0 6 11 10 24 10 14 0 28 5 31 10 3 6 17 10 30 10 13 0 27 5 30 10 8
14 -48 13 -62 -1 -6 -6 -19 -9 -29 -7 -15 3 -12 7 15 21 19 9 42 17 53 17 10
0 18 5 18 10 0 6 13 10 29 10 17 0 33 5 36 10 3 6 19 10 36 10 16 0 29 5 29
11 0 7 -9 9 -22 5 -13 -4 -36 -9 -53 -12 -16 -3 -40 -10 -51 -16 -12 -5 -30
-8 -40 -6 -18 5 -18 5 1 12 11 4 28 12 37 17 10 5 27 9 38 9 11 0 20 5 20 10
0 6 14 10 30 10 17 0 30 5 30 10 0 6 -13 10 -30 10 -16 0 -30 -4 -30 -10 0 -5
-11 -10 -25 -10 -14 0 -25 5 -25 10 0 6 11 10 25 10 14 0 25 5 25 10 0 6 11
10 24 10 14 0 28 5 31 10 3 6 17 10 31 10 13 0 24 5 24 10 0 13 -33 13 -47 -1
-6 -6 -23 -9 -39 -7 -26 4 -27 5 -9 12 11 4 28 12 37 17 10 5 27 9 38 9 11 0
20 5 20 10 0 6 14 10 30 10 17 0 30 5 30 11 0 7 -10 9 -27 5 -16 -4 -41 -9
-58 -12 -28 -5 -28 -4 9 16 22 11 48 20 57 20 10 0 21 5 24 10 3 6 17 10 30
10 13 0 27 5 30 10 3 6 19 10 35 10 16 0 32 5 35 10 6 10 3 11 -30 3z m-298
-169 c-3 -3 -12 -4 -19 -1 -8 3 -5 6 6 6 11 1 17 -2 13 -5z m-377 -454 c0 -5
-9 -10 -20 -10 -11 0 -20 5 -20 10 0 6 9 10 20 10 11 0 20 -4 20 -10z m-1773
-2052 c-3 -8 -6 -5 -6 6 -1 11 2 17 5 13 3 -3 4 -12 1 -19z m-55 -98 c-6 -43
-12 -37 -12 13 0 25 4 37 8 29 5 -7 7 -26 4 -42z m-105 -82 c-3 -7 -5 -2 -5
12 0 14 2 19 5 13 2 -7 2 -19 0 -25z m-60 -100 c-2 -13 -4 -5 -4 17 -1 22 1
32 4 23 2 -10 2 -28 0 -40z m-48 -60 c-1 -13 -5 -34 -9 -48 -7 -20 -8 -16 -9
23 -1 26 4 47 9 47 6 0 10 -10 9 -22z m-52 -10 c-3 -8 -6 -5 -6 6 -1 11 2 17
5 13 3 -3 4 -12 1 -19z m-55 -93 c-2 -14 -6 -25 -8 -25 -2 0 -4 11 -4 25 0 14
4 25 9 25 4 0 6 -11 3 -25z"/>
<path d="M5753 5363 c9 -2 23 -2 30 0 6 3 -1 5 -18 5 -16 0 -22 -2 -12 -5z"/>
<path d="M5653 5343 c9 -2 23 -2 30 0 6 3 -1 5 -18 5 -16 0 -22 -2 -12 -5z"/>
<path d="M6463 5343 c15 -2 37 -2 50 0 12 2 0 4 -28 4 -27 0 -38 -2 -22 -4z"/>
<path d="M5573 5323 c9 -2 23 -2 30 0 6 3 -1 5 -18 5 -16 0 -22 -2 -12 -5z"/>
<path d="M5493 5303 c9 -2 23 -2 30 0 6 3 -1 5 -18 5 -16 0 -22 -2 -12 -5z"/>
<path d="M5693 5303 c9 -2 23 -2 30 0 6 3 -1 5 -18 5 -16 0 -22 -2 -12 -5z"/>
<path d="M6340 5290 c30 -5 73 -8 95 -8 39 1 38 1 -10 8 -27 5 -70 8 -95 8
l-45 -1 55 -7z"/>
<path d="M5593 5283 c9 -2 25 -2 35 0 9 3 1 5 -18 5 -19 0 -27 -2 -17 -5z"/>
<path d="M6525 5270 c17 -4 44 -8 60 -8 25 0 24 2 -10 9 -51 10 -92 10 -50 -1z"/>
<path d="M5513 5263 c9 -2 23 -2 30 0 6 3 -1 5 -18 5 -16 0 -22 -2 -12 -5z"/>
<path d="M5768 5263 c7 -3 16 -2 19 1 4 3 -2 6 -13 5 -11 0 -14 -3 -6 -6z"/>
<path d="M5433 5243 c9 -2 23 -2 30 0 6 3 -1 5 -18 5 -16 0 -22 -2 -12 -5z"/>
<path d="M5638 5243 c6 -2 18 -2 25 0 6 3 1 5 -13 5 -14 0 -19 -2 -12 -5z"/>
<path d="M6263 5233 c15 -2 39 -2 55 0 15 2 2 4 -28 4 -30 0 -43 -2 -27 -4z"/>
<path d="M5533 5223 c9 -2 25 -2 35 0 9 3 1 5 -18 5 -19 0 -27 -2 -17 -5z"/>
<path d="M6490 5205 c215 -37 477 -134 635 -234 22 -14 49 -30 60 -36 40 -22
212 -154 274 -211 173 -158 330 -369 433 -582 33 -68 62 -122 64 -119 10 10
-38 119 -109 247 -30 54 -133 210 -146 220 -3 3 -20 23 -36 45 -128 172 -397
388 -625 500 -139 69 -168 80 -375 145 -50 16 -188 40 -220 39 -16 -1 4 -7 45
-14z"/>
<path d="M5453 5203 c9 -2 23 -2 30 0 6 3 -1 5 -18 5 -16 0 -22 -2 -12 -5z"/>
<path d="M5693 5203 c9 -2 25 -2 35 0 9 3 1 5 -18 5 -19 0 -27 -2 -17 -5z"/>
<path d="M5373 5183 c9 -2 25 -2 35 0 9 3 1 5 -18 5 -19 0 -27 -2 -17 -5z"/>
<path d="M5583 5183 c9 -2 23 -2 30 0 6 3 -1 5 -18 5 -16 0 -22 -2 -12 -5z"/>
<path d="M5483 5163 c9 -2 23 -2 30 0 6 3 -1 5 -18 5 -16 0 -22 -2 -12 -5z"/>
<path d="M6301 5166 c2 -2 40 -6 84 -9 60 -4 69 -3 35 3 -46 9 -127 13 -119 6z"/>
<path d="M5393 5143 c9 -2 23 -2 30 0 6 3 -1 5 -18 5 -16 0 -22 -2 -12 -5z"/>
<path d="M6560 5120 c117 -30 179 -50 265 -87 448 -189 811 -528 1015 -948 18
-38 35 -64 37 -58 7 20 -89 203 -161 308 -154 226 -342 409 -566 551 -153 97
-396 202 -554 238 -96 23 -126 19 -36 -4z"/>
<path d="M5513 5123 c9 -2 25 -2 35 0 9 3 1 5 -18 5 -19 0 -27 -2 -17 -5z"/>
<path d="M6213 5114 c4 -4 42 -11 84 -15 137 -15 188 -27 401 -95 41 -13 152
-63 232 -103 329 -165 639 -469 816 -798 36 -69 54 -94 54 -78 0 15 -63 139
-87 171 -13 17 -23 35 -23 39 0 4 -17 31 -38 59 -21 28 -54 72 -73 98 -58 80
-359 368 -384 368 -3 0 -29 17 -58 39 -29 21 -79 53 -112 70 -32 17 -63 35
-69 39 -27 21 -229 103 -311 127 -49 14 -103 30 -120 35 -16 5 -48 12 -70 15
-22 3 -58 10 -80 15 -54 12 -170 22 -162 14z"/>
<path d="M5423 5103 c9 -2 23 -2 30 0 6 3 -1 5 -18 5 -16 0 -22 -2 -12 -5z"/>
<path d="M5738 5103 c6 -2 18 -2 25 0 6 3 1 5 -13 5 -14 0 -19 -2 -12 -5z"/>
<path d="M5350 5090 l-25 -8 28 -1 c15 -1 27 4 27 9 0 6 -1 10 -2 9 -2 -1 -14
-5 -28 -9z"/>
<path d="M5260 5070 c-12 -8 -9 -10 13 -10 15 0 27 5 27 10 0 13 -20 13 -40 0z"/>
<path d="M5468 5063 c7 -3 16 -2 19 1 4 3 -2 6 -13 5 -11 0 -14 -3 -6 -6z"/>
<path d="M6170 5050 c30 -5 73 -8 95 -8 39 1 38 1 -10 8 -27 5 -70 8 -95 8
l-45 -1 55 -7z"/>
<path d="M5363 5043 c9 -2 23 -2 30 0 6 3 -1 5 -18 5 -16 0 -22 -2 -12 -5z"/>
<path d="M5280 5030 c-24 -8 -23 -8 8 -9 17 -1 32 4 32 9 0 11 -5 11 -40 0z"/>
<path d="M6330 5030 c0 -5 11 -10 24 -10 45 0 215 -44 271 -70 11 -5 40 -16
65 -24 66 -21 274 -128 357 -183 256 -171 442 -364 607 -631 32 -51 60 -91 63
-88 12 12 -122 225 -205 326 -129 157 -347 347 -502 438 -30 18 -62 37 -70 42
-87 56 -362 158 -526 194 -85 19 -84 19 -84 6z"/>
<path d="M5523 5023 c9 -2 23 -2 30 0 6 3 -1 5 -18 5 -16 0 -22 -2 -12 -5z"/>
<path d="M5200 5010 c-12 -8 -9 -10 12 -10 15 0 30 5 33 10 8 13 -25 13 -45 0z"/>
<path d="M5398 5003 c6 -2 18 -2 25 0 6 3 1 5 -13 5 -14 0 -19 -2 -12 -5z"/>
<path d="M5978 5003 c7 -3 16 -2 19 1 4 3 -2 6 -13 5 -11 0 -14 -3 -6 -6z"/>
<path d="M6123 4993 c15 -2 37 -2 50 0 12 2 0 4 -28 4 -27 0 -38 -2 -22 -4z"/>
<path d="M5308 4983 c6 -2 18 -2 25 0 6 3 1 5 -13 5 -14 0 -19 -2 -12 -5z"/>
<path d="M5225 4970 c-18 -8 -17 -9 7 -9 15 -1 30 4 33 9 7 12 -12 12 -40 0z"/>
<path d="M6300 4966 c166 -35 248 -60 404 -126 339 -142 654 -412 870 -743 32
-49 60 -86 63 -83 7 7 -75 141 -135 221 -118 158 -304 335 -452 432 -47 31
-96 64 -110 73 -38 26 -224 113 -315 149 -103 39 -258 79 -332 86 l-58 5 65
-14z"/>
<path d="M5343 4943 c9 -2 23 -2 30 0 6 3 -1 5 -18 5 -16 0 -22 -2 -12 -5z"/>
<path d="M5863 4943 c32 -2 81 -2 110 0 29 2 3 3 -58 3 -60 0 -84 -1 -52 -3z"/>
<path d="M5255 4930 c-18 -8 -17 -9 7 -9 15 -1 30 4 33 9 7 12 -12 12 -40 0z"/>
<path d="M6063 4933 c9 -2 23 -2 30 0 6 3 -1 5 -18 5 -16 0 -22 -2 -12 -5z"/>
<path d="M6185 4920 c28 -5 63 -11 80 -15 18 -3 26 -2 20 4 -6 5 -41 12 -80
15 -62 4 -65 4 -20 -4z"/>
<path d="M5165 4910 c-18 -8 -17 -9 7 -9 15 -1 30 4 33 9 7 12 -12 12 -40 0z"/>
<path d="M5085 4890 c-3 -6 5 -10 19 -10 14 0 28 5 31 10 3 6 -5 10 -19 10
-14 0 -28 -4 -31 -10z"/>
<path d="M5798 4883 c6 -2 18 -2 25 0 6 3 1 5 -13 5 -14 0 -19 -2 -12 -5z"/>
<path d="M5888 4883 c17 -2 47 -2 65 0 17 2 3 4 -33 4 -36 0 -50 -2 -32 -4z"/>
<path d="M5205 4870 l-30 -8 27 -1 c15 0 30 4 33 9 3 6 5 9 3 9 -2 -1 -16 -5
-33 -9z"/>
<path d="M5105 4850 c-3 -6 5 -10 19 -10 14 0 28 5 31 10 3 6 -5 10 -19 10
-14 0 -28 -4 -31 -10z"/>
<path d="M5338 4843 c6 -2 18 -2 25 0 6 3 1 5 -13 5 -14 0 -19 -2 -12 -5z"/>
<path d="M5030 4830 c-12 -8 -9 -10 12 -10 15 0 30 5 33 10 8 13 -25 13 -45 0z"/>
<path d="M5228 4823 c6 -2 18 -2 25 0 6 3 1 5 -13 5 -14 0 -19 -2 -12 -5z"/>
<path d="M5145 4810 c-19 -8 -19 -9 3 -9 12 -1 22 4 22 9 0 6 -1 10 -2 9 -2 0
-12 -4 -23 -9z"/>
<path d="M5978 4813 c12 -2 32 -2 45 0 12 2 2 4 -23 4 -25 0 -35 -2 -22 -4z"/>
<path d="M6068 4803 c12 -2 30 -2 40 0 9 3 -1 5 -23 4 -22 0 -30 -2 -17 -4z"/>
<path d="M5050 4790 c-12 -8 -12 -10 5 -10 11 0 27 5 35 10 12 8 12 10 -5 10
-11 0 -27 -5 -35 -10z"/>
<path d="M6151 4786 c2 -2 27 -6 54 -9 34 -4 42 -3 25 3 -25 8 -87 13 -79 6z"/>
<path d="M4970 4770 c0 -5 11 -10 25 -10 14 0 25 5 25 10 0 6 -11 10 -25 10
-14 0 -25 -4 -25 -10z"/>
<path d="M5168 4763 c6 -2 18 -2 25 0 6 3 1 5 -13 5 -14 0 -19 -2 -12 -5z"/>
<path d="M5643 4763 c37 -2 97 -2 135 0 37 2 6 3 -68 3 -74 0 -105 -1 -67 -3z"/>
<path d="M5075 4750 c-3 -5 3 -10 14 -10 11 0 23 5 26 10 3 6 -3 10 -14 10
-11 0 -23 -4 -26 -10z"/>
<path d="M4995 4730 c-3 -5 3 -10 14 -10 11 0 23 5 26 10 3 6 -3 10 -14 10
-11 0 -23 -4 -26 -10z"/>
<path d="M4915 4710 c-3 -6 5 -10 19 -10 14 0 28 5 31 10 3 6 -5 10 -19 10
-14 0 -28 -4 -31 -10z"/>
<path d="M5108 4703 c7 -3 16 -2 19 1 4 3 -2 6 -13 5 -11 0 -14 -3 -6 -6z"/>
<path d="M5020 4690 c-13 -9 -13 -10 0 -9 8 0 24 4 35 9 l20 9 -20 0 c-11 0
-27 -4 -35 -9z"/>
<path d="M4930 4670 c-12 -8 -11 -10 5 -9 11 1 31 5 45 9 24 8 24 8 -5 9 -16
0 -37 -4 -45 -9z"/>
<path d="M4855 4650 c-4 -7 3 -8 22 -4 38 9 42 14 10 14 -14 0 -29 -5 -32 -10z"/>
<path d="M8742 3143 l3 -838 185 0 185 0 3 296 c2 231 5 299 16 308 8 7 135
12 392 13 l379 3 0 145 0 145 -384 3 c-293 2 -387 5 -393 15 -9 14 -11 408 -2
431 5 14 54 16 445 16 l439 0 1 25 c0 14 0 77 0 140 0 63 0 120 0 125 -1 7
-220 10 -636 10 l-635 0 2 -837z"/>
</g>
</svg>
